<svg xmlns="http://www.w3.org/2000/svg" version="1.1" xmlns:xlink="http://www.w3.org/1999/xlink" xmlns:svgjs="http://svgjs.dev/svgjs" viewBox="0 0 800 800" opacity="0.72"><g stroke-width="0.5" stroke="hsla(0, 0%, 80%, 1)" fill="none" stroke-linecap="round" transform="matrix(1,0,0,1,-5,-54.0084114074707)"><path d="M10,10C41.25,12.5,95.41666666666667,26.583333333333332,160,22C224.58333333333331,17.416666666666668,253.33333333333331,-13.458333333333334,320,-12C386.6666666666667,-10.541666666666666,413.3333333333333,30.666666666666668,480,29C546.6666666666666,27.333333333333332,573.3333333333334,-18.75,640,-20C706.6666666666666,-21.25,766.6666666666666,14.041666666666666,800,23"></path><path d="M10,10C41.25,12.5,95.41666666666667,26.583333333333332,160,22C224.58333333333331,17.416666666666668,253.33333333333331,-13.458333333333334,320,-12C386.6666666666667,-10.541666666666666,413.3333333333333,30.666666666666668,480,29C546.6666666666666,27.333333333333332,573.3333333333334,-18.75,640,-20C706.6666666666666,-21.25,766.6666666666666,14.041666666666666,800,23" transform="matrix(1,0,0,1,0,899)"></path><path d="M10,10C41.25,12.5,95.41666666666667,26.583333333333332,160,22C224.58333333333331,17.416666666666668,253.33333333333331,-13.458333333333334,320,-12C386.6666666666667,-10.541666666666666,413.3333333333333,30.666666666666668,480,29C546.6666666666666,27.333333333333332,573.3333333333334,-18.75,640,-20C706.6666666666666,-21.25,766.6666666666666,14.041666666666666,800,23" transform="matrix(1,0,0,1,0,868)"></path><path d="M10,10C41.25,12.5,95.41666666666667,26.583333333333332,160,22C224.58333333333331,17.416666666666668,253.33333333333331,-13.458333333333334,320,-12C386.6666666666667,-10.541666666666666,413.3333333333333,30.666666666666668,480,29C546.6666666666666,27.333333333333332,573.3333333333334,-18.75,640,-20C706.6666666666666,-21.25,766.6666666666666,14.041666666666666,800,23" transform="matrix(1,0,0,1,0,837)"></path><path d="M10,10C41.25,12.5,95.41666666666667,26.583333333333332,160,22C224.58333333333331,17.416666666666668,253.33333333333331,-13.458333333333334,320,-12C386.6666666666667,-10.541666666666666,413.3333333333333,30.666666666666668,480,29C546.6666666666666,27.333333333333332,573.3333333333334,-18.75,640,-20C706.6666666666666,-21.25,766.6666666666666,14.041666666666666,800,23" transform="matrix(1,0,0,1,0,806)"></path><path d="M10,10C41.25,12.5,95.41666666666667,26.583333333333332,160,22C224.58333333333331,17.416666666666668,253.33333333333331,-13.458333333333334,320,-12C386.6666666666667,-10.541666666666666,413.3333333333333,30.666666666666668,480,29C546.6666666666666,27.333333333333332,573.3333333333334,-18.75,640,-20C706.6666666666666,-21.25,766.6666666666666,14.041666666666666,800,23" transform="matrix(1,0,0,1,0,775)"></path><path d="M10,10C41.25,12.5,95.41666666666667,26.583333333333332,160,22C224.58333333333331,17.416666666666668,253.33333333333331,-13.458333333333334,320,-12C386.6666666666667,-10.541666666666666,413.3333333333333,30.666666666666668,480,29C546.6666666666666,27.333333333333332,573.3333333333334,-18.75,640,-20C706.6666666666666,-21.25,766.6666666666666,14.041666666666666,800,23" transform="matrix(1,0,0,1,0,744)"></path><path d="M10,10C41.25,12.5,95.41666666666667,26.583333333333332,160,22C224.58333333333331,17.416666666666668,253.33333333333331,-13.458333333333334,320,-12C386.6666666666667,-10.541666666666666,413.3333333333333,30.666666666666668,480,29C546.6666666666666,27.333333333333332,573.3333333333334,-18.75,640,-20C706.6666666666666,-21.25,766.6666666666666,14.041666666666666,800,23" transform="matrix(1,0,0,1,0,713)"></path><path d="M10,10C41.25,12.5,95.41666666666667,26.583333333333332,160,22C224.58333333333331,17.416666666666668,253.33333333333331,-13.458333333333334,320,-12C386.6666666666667,-10.541666666666666,413.3333333333333,30.666666666666668,480,29C546.6666666666666,27.333333333333332,573.3333333333334,-18.75,640,-20C706.6666666666666,-21.25,766.6666666666666,14.041666666666666,800,23" transform="matrix(1,0,0,1,0,682)"></path><path d="M10,10C41.25,12.5,95.41666666666667,26.583333333333332,160,22C224.58333333333331,17.416666666666668,253.33333333333331,-13.458333333333334,320,-12C386.6666666666667,-10.541666666666666,413.3333333333333,30.666666666666668,480,29C546.6666666666666,27.333333333333332,573.3333333333334,-18.75,640,-20C706.6666666666666,-21.25,766.6666666666666,14.041666666666666,800,23" transform="matrix(1,0,0,1,0,651)"></path><path d="M10,10C41.25,12.5,95.41666666666667,26.583333333333332,160,22C224.58333333333331,17.416666666666668,253.33333333333331,-13.458333333333334,320,-12C386.6666666666667,-10.541666666666666,413.3333333333333,30.666666666666668,480,29C546.6666666666666,27.333333333333332,573.3333333333334,-18.75,640,-20C706.6666666666666,-21.25,766.6666666666666,14.041666666666666,800,23" transform="matrix(1,0,0,1,0,620)"></path><path d="M10,10C41.25,12.5,95.41666666666667,26.583333333333332,160,22C224.58333333333331,17.416666666666668,253.33333333333331,-13.458333333333334,320,-12C386.6666666666667,-10.541666666666666,413.3333333333333,30.666666666666668,480,29C546.6666666666666,27.333333333333332,573.3333333333334,-18.75,640,-20C706.6666666666666,-21.25,766.6666666666666,14.041666666666666,800,23" transform="matrix(1,0,0,1,0,589)"></path><path d="M10,10C41.25,12.5,95.41666666666667,26.583333333333332,160,22C224.58333333333331,17.416666666666668,253.33333333333331,-13.458333333333334,320,-12C386.6666666666667,-10.541666666666666,413.3333333333333,30.666666666666668,480,29C546.6666666666666,27.333333333333332,573.3333333333334,-18.75,640,-20C706.6666666666666,-21.25,766.6666666666666,14.041666666666666,800,23" transform="matrix(1,0,0,1,0,558)"></path><path d="M10,10C41.25,12.5,95.41666666666667,26.583333333333332,160,22C224.58333333333331,17.416666666666668,253.33333333333331,-13.458333333333334,320,-12C386.6666666666667,-10.541666666666666,413.3333333333333,30.666666666666668,480,29C546.6666666666666,27.333333333333332,573.3333333333334,-18.75,640,-20C706.6666666666666,-21.25,766.6666666666666,14.041666666666666,800,23" transform="matrix(1,0,0,1,0,527)"></path><path d="M10,10C41.25,12.5,95.41666666666667,26.583333333333332,160,22C224.58333333333331,17.416666666666668,253.33333333333331,-13.458333333333334,320,-12C386.6666666666667,-10.541666666666666,413.3333333333333,30.666666666666668,480,29C546.6666666666666,27.333333333333332,573.3333333333334,-18.75,640,-20C706.6666666666666,-21.25,766.6666666666666,14.041666666666666,800,23" transform="matrix(1,0,0,1,0,496)"></path><path d="M10,10C41.25,12.5,95.41666666666667,26.583333333333332,160,22C224.58333333333331,17.416666666666668,253.33333333333331,-13.458333333333334,320,-12C386.6666666666667,-10.541666666666666,413.3333333333333,30.666666666666668,480,29C546.6666666666666,27.333333333333332,573.3333333333334,-18.75,640,-20C706.6666666666666,-21.25,766.6666666666666,14.041666666666666,800,23" transform="matrix(1,0,0,1,0,465)"></path><path d="M10,10C41.25,12.5,95.41666666666667,26.583333333333332,160,22C224.58333333333331,17.416666666666668,253.33333333333331,-13.458333333333334,320,-12C386.6666666666667,-10.541666666666666,413.3333333333333,30.666666666666668,480,29C546.6666666666666,27.333333333333332,573.3333333333334,-18.75,640,-20C706.6666666666666,-21.25,766.6666666666666,14.041666666666666,800,23" transform="matrix(1,0,0,1,0,434)"></path><path d="M10,10C41.25,12.5,95.41666666666667,26.583333333333332,160,22C224.58333333333331,17.416666666666668,253.33333333333331,-13.458333333333334,320,-12C386.6666666666667,-10.541666666666666,413.3333333333333,30.666666666666668,480,29C546.6666666666666,27.333333333333332,573.3333333333334,-18.75,640,-20C706.6666666666666,-21.25,766.6666666666666,14.041666666666666,800,23" transform="matrix(1,0,0,1,0,403)"></path><path d="M10,10C41.25,12.5,95.41666666666667,26.583333333333332,160,22C224.58333333333331,17.416666666666668,253.33333333333331,-13.458333333333334,320,-12C386.6666666666667,-10.541666666666666,413.3333333333333,30.666666666666668,480,29C546.6666666666666,27.333333333333332,573.3333333333334,-18.75,640,-20C706.6666666666666,-21.25,766.6666666666666,14.041666666666666,800,23" transform="matrix(1,0,0,1,0,372)"></path><path d="M10,10C41.25,12.5,95.41666666666667,26.583333333333332,160,22C224.58333333333331,17.416666666666668,253.33333333333331,-13.458333333333334,320,-12C386.6666666666667,-10.541666666666666,413.3333333333333,30.666666666666668,480,29C546.6666666666666,27.333333333333332,573.3333333333334,-18.75,640,-20C706.6666666666666,-21.25,766.6666666666666,14.041666666666666,800,23" transform="matrix(1,0,0,1,0,341)"></path><path d="M10,10C41.25,12.5,95.41666666666667,26.583333333333332,160,22C224.58333333333331,17.416666666666668,253.33333333333331,-13.458333333333334,320,-12C386.6666666666667,-10.541666666666666,413.3333333333333,30.666666666666668,480,29C546.6666666666666,27.333333333333332,573.3333333333334,-18.75,640,-20C706.6666666666666,-21.25,766.6666666666666,14.041666666666666,800,23" transform="matrix(1,0,0,1,0,310)"></path><path d="M10,10C41.25,12.5,95.41666666666667,26.583333333333332,160,22C224.58333333333331,17.416666666666668,253.33333333333331,-13.458333333333334,320,-12C386.6666666666667,-10.541666666666666,413.3333333333333,30.666666666666668,480,29C546.6666666666666,27.333333333333332,573.3333333333334,-18.75,640,-20C706.6666666666666,-21.25,766.6666666666666,14.041666666666666,800,23" transform="matrix(1,0,0,1,0,279)"></path><path d="M10,10C41.25,12.5,95.41666666666667,26.583333333333332,160,22C224.58333333333331,17.416666666666668,253.33333333333331,-13.458333333333334,320,-12C386.6666666666667,-10.541666666666666,413.3333333333333,30.666666666666668,480,29C546.6666666666666,27.333333333333332,573.3333333333334,-18.75,640,-20C706.6666666666666,-21.25,766.6666666666666,14.041666666666666,800,23" transform="matrix(1,0,0,1,0,248)"></path><path d="M10,10C41.25,12.5,95.41666666666667,26.583333333333332,160,22C224.58333333333331,17.416666666666668,253.33333333333331,-13.458333333333334,320,-12C386.6666666666667,-10.541666666666666,413.3333333333333,30.666666666666668,480,29C546.6666666666666,27.333333333333332,573.3333333333334,-18.75,640,-20C706.6666666666666,-21.25,766.6666666666666,14.041666666666666,800,23" transform="matrix(1,0,0,1,0,217)"></path><path d="M10,10C41.25,12.5,95.41666666666667,26.583333333333332,160,22C224.58333333333331,17.416666666666668,253.33333333333331,-13.458333333333334,320,-12C386.6666666666667,-10.541666666666666,413.3333333333333,30.666666666666668,480,29C546.6666666666666,27.333333333333332,573.3333333333334,-18.75,640,-20C706.6666666666666,-21.25,766.6666666666666,14.041666666666666,800,23" transform="matrix(1,0,0,1,0,186)"></path><path d="M10,10C41.25,12.5,95.41666666666667,26.583333333333332,160,22C224.58333333333331,17.416666666666668,253.33333333333331,-13.458333333333334,320,-12C386.6666666666667,-10.541666666666666,413.3333333333333,30.666666666666668,480,29C546.6666666666666,27.333333333333332,573.3333333333334,-18.75,640,-20C706.6666666666666,-21.25,766.6666666666666,14.041666666666666,800,23" transform="matrix(1,0,0,1,0,155)"></path><path d="M10,10C41.25,12.5,95.41666666666667,26.583333333333332,160,22C224.58333333333331,17.416666666666668,253.33333333333331,-13.458333333333334,320,-12C386.6666666666667,-10.541666666666666,413.3333333333333,30.666666666666668,480,29C546.6666666666666,27.333333333333332,573.3333333333334,-18.75,640,-20C706.6666666666666,-21.25,766.6666666666666,14.041666666666666,800,23" transform="matrix(1,0,0,1,0,124)"></path><path d="M10,10C41.25,12.5,95.41666666666667,26.583333333333332,160,22C224.58333333333331,17.416666666666668,253.33333333333331,-13.458333333333334,320,-12C386.6666666666667,-10.541666666666666,413.3333333333333,30.666666666666668,480,29C546.6666666666666,27.333333333333332,573.3333333333334,-18.75,640,-20C706.6666666666666,-21.25,766.6666666666666,14.041666666666666,800,23" transform="matrix(1,0,0,1,0,93)"></path><path d="M10,10C41.25,12.5,95.41666666666667,26.583333333333332,160,22C224.58333333333331,17.416666666666668,253.33333333333331,-13.458333333333334,320,-12C386.6666666666667,-10.541666666666666,413.3333333333333,30.666666666666668,480,29C546.6666666666666,27.333333333333332,573.3333333333334,-18.75,640,-20C706.6666666666666,-21.25,766.6666666666666,14.041666666666666,800,23" transform="matrix(1,0,0,1,0,62)"></path><path d="M10,10C41.25,12.5,95.41666666666667,26.583333333333332,160,22C224.58333333333331,17.416666666666668,253.33333333333331,-13.458333333333334,320,-12C386.6666666666667,-10.541666666666666,413.3333333333333,30.666666666666668,480,29C546.6666666666666,27.333333333333332,573.3333333333334,-18.75,640,-20C706.6666666666666,-21.25,766.6666666666666,14.041666666666666,800,23" transform="matrix(1,0,0,1,0,31)"></path></g></svg>